<svg xmlns="http://www.w3.org/2000/svg" width="42" height="42" viewBox="0 0 42 42"><path d="M299.033,909a4.871,4.871,0,0,1,3.267,1.26,3.955,3.955,0,0,1,1.4,2.94v29.4a3.956,3.956,0,0,1-1.4,2.94,4.87,4.87,0,0,1-3.267,1.26H266.367a4.469,4.469,0,0,1-3.267-1.26,3.955,3.955,0,0,1-1.4-2.94V913.2a3.956,3.956,0,0,1,1.4-2.94,4.87,4.87,0,0,1,3.267-1.26H268.7v-4.2h4.667V909h18.667v-4.2H296.7V909Zm0,33.6V919.5H266.367v23.1Zm-4.667-18.9v4.2H271.033v-4.2Zm-7,8.4v4.2H271.033v-4.2Z" transform="translate(-261.7 -904.8)" fill="#d01820"/></svg>