<svg xmlns="http://www.w3.org/2000/svg" width="18" height="18" viewBox="0 0 18 18"><path d="M537.5,919.3a1.025,1.025,0,0,1,1,1v3.5a1.025,1.025,0,0,1-1,1,17.072,17.072,0,0,1-17-17,1.025,1.025,0,0,1,1-1H525a1.025,1.025,0,0,1,1,1,11.326,11.326,0,0,0,.6,3.6,1.093,1.093,0,0,1-.2,1l-2.2,2.2a15.039,15.039,0,0,0,6.6,6.6L533,919a.775.775,0,0,1,1-.2A12.3,12.3,0,0,0,537.5,919.3Zm-1.1-3.5a6.83,6.83,0,0,0-6.9-6.9v-2a9,9,0,0,1,6.4,2.6,8.448,8.448,0,0,1,2.6,6.4h-2.1Zm-4,0a3.076,3.076,0,0,0-3-3v-2a4.539,4.539,0,0,1,3.5,1.5,5.288,5.288,0,0,1,1.5,3.5Z" transform="translate(-520.5 -906.8)" fill="#d01820"/></svg>