<svg xmlns="http://www.w3.org/2000/svg" width="42" height="42" viewBox="0 0 42 42"><path d="M673.39,1120.79a19.964,19.964,0,0,1,14.91-6.09,20.784,20.784,0,0,1,14.91,6.09,19.648,19.648,0,0,1,6.09,14.91,20.786,20.786,0,0,1-6.09,14.91,19.647,19.647,0,0,1-14.91,6.09,20.786,20.786,0,0,1-14.91-6.09,19.648,19.648,0,0,1-6.09-14.91A20.438,20.438,0,0,1,673.39,1120.79Zm2.94,26.67a16.233,16.233,0,0,0,11.76,5.04,15.894,15.894,0,0,0,11.76-5.04,17.106,17.106,0,0,0,5.04-11.76,15.892,15.892,0,0,0-5.04-11.76,17.107,17.107,0,0,0-11.76-5.04,15.893,15.893,0,0,0-11.76,5.04,16.239,16.239,0,0,0,0,23.52Zm13.02-22.47v10.92l9.45,5.67-1.68,2.73-10.92-6.72v-12.6Z" transform="translate(-667.3 -1114.7)" fill="#d01820"/></svg>