<svg xmlns="http://www.w3.org/2000/svg" width="42" height="42" viewBox="0 0 42 42"><path d="M227.589,1046.2v2.333a4.735,4.735,0,0,1-1.326,3.267,4.255,4.255,0,0,1-3.095,1.4H192.221a3.918,3.918,0,0,1-3.095-1.4,4.736,4.736,0,0,1-1.326-3.267v-32.667a4.735,4.735,0,0,1,1.326-3.267,4.254,4.254,0,0,1,3.095-1.4h30.947a4.255,4.255,0,0,1,3.095,1.4,4.735,4.735,0,0,1,1.326,3.267v2.333H207.695a3.918,3.918,0,0,0-3.095,1.4,4.735,4.735,0,0,0-1.326,3.267v18.667a4.735,4.735,0,0,0,1.326,3.267,4.255,4.255,0,0,0,3.095,1.4Zm-19.895-4.667v-18.667H229.8v18.667Zm6.411-6.766a3.634,3.634,0,0,0,4.863,0,4.167,4.167,0,0,0,0-5.133,3.634,3.634,0,0,0-4.863,0,4.167,4.167,0,0,0,0,5.133Z" transform="translate(-187.8 -1011.2)" fill="#d01820"/></svg>